<?xml version="1.0" standalone="no"?>
<!DOCTYPE svg PUBLIC "-//W3C//DTD SVG 20010904//EN"
 "http://www.w3.org/TR/2001/REC-SVG-20010904/DTD/svg10.dtd">
<svg version="1.0" xmlns="http://www.w3.org/2000/svg"
 width="193.000000pt" height="193.000000pt" viewBox="0 0 193.000000 193.000000"
 preserveAspectRatio="xMidYMid meet">
<metadata>
Created by potrace 1.11, written by Peter Selinger 2001-2013
</metadata>
<g transform="translate(0.000000,193.000000) scale(0.100000,-0.100000)"
fill="#000000" stroke="none">
<path d="M778 1918 c-20 -5 -64 -34 -98 -63 -34 -29 -69 -55 -79 -58 -10 -2
-49 6 -87 19 -122 43 -165 29 -195 -64 -19 -59 -27 -65 -81 -59 -26 4 -48 4
-48 1 0 -3 20 -14 45 -25 59 -26 91 -19 140 31 45 46 71 50 123 18 l36 -22
-62 -19 c-80 -23 -106 -58 -97 -127 4 -25 1 -58 -5 -74 -8 -23 -15 -27 -35
-24 -33 7 -32 -10 1 -18 l27 -7 -22 -16 c-12 -9 -28 -28 -34 -41 -7 -14 -26
-29 -42 -35 -46 -15 -55 -24 -54 -53 l0 -27 16 23 c9 12 26 22 40 22 32 0 63
16 89 47 20 23 26 25 72 18 l51 -7 -24 -49 c-28 -55 -55 -74 -93 -64 -26 6
-26 6 -8 -14 13 -14 31 -21 54 -21 30 0 44 9 94 60 32 33 63 60 70 60 19 0 11
-96 -12 -145 -29 -62 -33 -112 -16 -188 25 -105 91 -266 151 -366 59 -96 74
-144 67 -203 -4 -36 -6 -38 -39 -38 -88 0 -459 72 -549 107 -12 4 -14 -23 -14
-185 l0 -189 118 -31 c438 -116 926 -116 1365 0 l117 31 0 189 c0 162 -2 189
-14 185 -87 -33 -489 -113 -508 -100 -10 5 -10 98 -2 141 l6 31 78 -1 c82 0
102 3 163 29 36 16 37 17 37 69 0 30 -6 71 -14 91 -8 21 -17 52 -19 69 -3 17
-18 49 -33 71 -24 38 -43 51 -134 93 -8 4 -28 32 -43 63 -41 79 -123 152 -195
173 -75 22 -120 44 -127 62 -3 9 5 26 19 41 14 14 37 53 52 86 23 51 29 79 34
180 8 139 -3 190 -51 248 -54 66 -150 97 -231 75z m-198 -365 c0 -57 -85 -122
-159 -123 -32 0 -33 1 -19 18 9 9 19 28 23 42 4 14 13 31 19 39 30 38 136 56
136 24z"/>
</g>
</svg>
